<?xml version="1.0" encoding="UTF-8" standalone="no"?>
<!DOCTYPE svg PUBLIC "-//W3C//DTD SVG 1.1//EN"
 "http://www.w3.org/Graphics/SVG/1.1/DTD/svg11.dtd">
<!-- Generated by graphviz version 2.43.0 (0)
 -->
<!-- Title: dependency&#45;cruiser output Pages: 1 -->
<svg width="165pt" height="104pt"
 viewBox="0.00 0.00 165.02 104.00" xmlns="http://www.w3.org/2000/svg" xmlns:xlink="http://www.w3.org/1999/xlink">
<g id="graph0" class="graph" transform="scale(1 1) rotate(0) translate(4 100)">
<title>dependency&#45;cruiser output</title>
<polygon fill="white" stroke="transparent" points="-4,4 -4,-100 161.02,-100 161.02,4 -4,4"/>
<g id="clust1" class="cluster">
<title>cluster_src</title>
<path fill="#ffffff" stroke="black" stroke-width="2" d="M20,-8C20,-8 137.02,-8 137.02,-8 143.02,-8 149.02,-14 149.02,-20 149.02,-20 149.02,-76 149.02,-76 149.02,-82 143.02,-88 137.02,-88 137.02,-88 20,-88 20,-88 14,-88 8,-82 8,-76 8,-76 8,-20 8,-20 8,-14 14,-8 20,-8"/>
<text text-anchor="middle" x="78.51" y="-76.8" font-family="Helvetica,sans-Serif" font-weight="bold" font-size="9.00">src</text>
</g>
<!-- src/App.svelte -->
<g id="node1" class="node">
<title>src/App.svelte</title>
<g id="a_node1"><a xlink:href="src/App.svelte" xlink:title="App.svelte">
<path fill="#ffffcc" stroke="black" d="M135.37,-62.5C135.37,-62.5 88.65,-62.5 88.65,-62.5 85.82,-62.5 82.99,-59.67 82.99,-56.83 82.99,-56.83 82.99,-51.17 82.99,-51.17 82.99,-48.33 85.82,-45.5 88.65,-45.5 88.65,-45.5 135.37,-45.5 135.37,-45.5 138.2,-45.5 141.04,-48.33 141.04,-51.17 141.04,-51.17 141.04,-56.83 141.04,-56.83 141.04,-59.67 138.2,-62.5 135.37,-62.5"/>
<text text-anchor="middle" x="112.01" y="-51.3" font-family="Helvetica,sans-Serif" font-size="9.00">App.svelte</text>
</a>
</g>
</g>
<!-- src/main.js -->
<g id="node2" class="node">
<title>src/main.js</title>
<g id="a_node2"><a xlink:href="src/main.js" xlink:title="main.js">
<path fill="#ffffcc" stroke="black" d="M64.33,-62.5C64.33,-62.5 21.67,-62.5 21.67,-62.5 18.83,-62.5 16,-59.67 16,-56.83 16,-56.83 16,-51.17 16,-51.17 16,-48.33 18.83,-45.5 21.67,-45.5 21.67,-45.5 64.33,-45.5 64.33,-45.5 67.17,-45.5 70,-48.33 70,-51.17 70,-51.17 70,-56.83 70,-56.83 70,-59.67 67.17,-62.5 64.33,-62.5"/>
<text text-anchor="middle" x="43" y="-51.3" font-family="Helvetica,sans-Serif" font-size="9.00">main.js</text>
</a>
</g>
</g>
<!-- src/main.js&#45;&gt;src/App.svelte -->
<g id="edge1" class="edge">
<title>src/main.js&#45;&gt;src/App.svelte</title>
<path fill="none" stroke="#000000" stroke-width="2" stroke-opacity="0.200000" d="M70.1,-54C72.16,-54 74.26,-54 76.36,-54"/>
<polygon fill="#000000" fill-opacity="0.200000" stroke="#000000" stroke-width="2" stroke-opacity="0.200000" points="76.65,-56.1 82.65,-54 76.65,-51.9 76.65,-56.1"/>
</g>
<!-- src/stores.js -->
<g id="node3" class="node">
<title>src/stores.js</title>
<g id="a_node3"><a xlink:href="src/stores.js" xlink:title="stores.js">
<path fill="#ccffcc" stroke="black" d="M64.33,-33.5C64.33,-33.5 21.67,-33.5 21.67,-33.5 18.83,-33.5 16,-30.67 16,-27.83 16,-27.83 16,-22.17 16,-22.17 16,-19.33 18.83,-16.5 21.67,-16.5 21.67,-16.5 64.33,-16.5 64.33,-16.5 67.17,-16.5 70,-19.33 70,-22.17 70,-22.17 70,-27.83 70,-27.83 70,-30.67 67.17,-33.5 64.33,-33.5"/>
<text text-anchor="middle" x="43" y="-22.3" font-family="Helvetica,sans-Serif" font-size="9.00">stores.js</text>
</a>
</g>
</g>
</g>
</svg>
