<?xml version="1.0" encoding="UTF-8" standalone="no"?>
<!DOCTYPE svg PUBLIC "-//W3C//DTD SVG 1.1//EN"
 "http://www.w3.org/Graphics/SVG/1.1/DTD/svg11.dtd">
<!-- Generated by graphviz version 2.43.0 (0)
 -->
<!-- Title: dependency&#45;cruiser output Pages: 1 -->
<svg width="165pt" height="75pt"
 viewBox="0.00 0.00 165.02 75.00" xmlns="http://www.w3.org/2000/svg" xmlns:xlink="http://www.w3.org/1999/xlink">
<g id="graph0" class="graph" transform="scale(1 1) rotate(0) translate(4 71)">
<title>dependency&#45;cruiser output</title>
<polygon fill="white" stroke="transparent" points="-4,4 -4,-71 161.02,-71 161.02,4 -4,4"/>
<g id="clust1" class="cluster">
<title>cluster_src</title>
<path fill="#ffffff" stroke="black" stroke-width="2" d="M20,-8C20,-8 137.02,-8 137.02,-8 143.02,-8 149.02,-14 149.02,-20 149.02,-20 149.02,-47 149.02,-47 149.02,-53 143.02,-59 137.02,-59 137.02,-59 20,-59 20,-59 14,-59 8,-53 8,-47 8,-47 8,-20 8,-20 8,-14 14,-8 20,-8"/>
<text text-anchor="middle" x="78.51" y="-47.8" font-family="Helvetica,sans-Serif" font-weight="bold" font-size="9.00">src</text>
</g>
<!-- src/App.svelte -->
<g id="node1" class="node">
<title>src/App.svelte</title>
<g id="a_node1"><a xlink:href="src/App.svelte" xlink:title="App.svelte">
<path fill="#ffffcc" stroke="black" d="M135.37,-33.5C135.37,-33.5 88.65,-33.5 88.65,-33.5 85.82,-33.5 82.99,-30.67 82.99,-27.83 82.99,-27.83 82.99,-22.17 82.99,-22.17 82.99,-19.33 85.82,-16.5 88.65,-16.5 88.65,-16.5 135.37,-16.5 135.37,-16.5 138.2,-16.5 141.04,-19.33 141.04,-22.17 141.04,-22.17 141.04,-27.83 141.04,-27.83 141.04,-30.67 138.2,-33.5 135.37,-33.5"/>
<text text-anchor="middle" x="112.01" y="-22.3" font-family="Helvetica,sans-Serif" font-size="9.00">App.svelte</text>
</a>
</g>
</g>
<!-- src/main.js -->
<g id="node2" class="node">
<title>src/main.js</title>
<g id="a_node2"><a xlink:href="src/main.js" xlink:title="main.js">
<path fill="#ffffcc" stroke="black" d="M64.33,-33.5C64.33,-33.5 21.67,-33.5 21.67,-33.5 18.83,-33.5 16,-30.67 16,-27.83 16,-27.83 16,-22.17 16,-22.17 16,-19.33 18.83,-16.5 21.67,-16.5 21.67,-16.5 64.33,-16.5 64.33,-16.5 67.17,-16.5 70,-19.33 70,-22.17 70,-22.17 70,-27.83 70,-27.83 70,-30.67 67.17,-33.5 64.33,-33.5"/>
<text text-anchor="middle" x="43" y="-22.3" font-family="Helvetica,sans-Serif" font-size="9.00">main.js</text>
</a>
</g>
</g>
<!-- src/main.js&#45;&gt;src/App.svelte -->
<g id="edge1" class="edge">
<title>src/main.js&#45;&gt;src/App.svelte</title>
<path fill="none" stroke="#000000" stroke-width="2" stroke-opacity="0.200000" d="M70.1,-25C72.16,-25 74.26,-25 76.36,-25"/>
<polygon fill="#000000" fill-opacity="0.200000" stroke="#000000" stroke-width="2" stroke-opacity="0.200000" points="76.65,-27.1 82.65,-25 76.65,-22.9 76.65,-27.1"/>
</g>
</g>
</svg>
